<svg xmlns="http://www.w3.org/2000/svg" xmlns:xlink="http://www.w3.org/1999/xlink" width="1024" height="768"><g font-family="sans-serif" font-size="20"><rect width="1024" height="768" x="0" y="0" fill="#fff"/><g font-size="75%" font-style="italic"><rect width="0" height="20" x="612" y="118" fill="red" fill-opacity=".3"/><text x="607" y="133" text-anchor="end">+0.10%</text></g><text x="100" y="138" text-anchor="start">BenchmarkFirst</text><g font-size="75%" font-style="italic"><rect width="0" height="20" x="612" y="144" fill="green" fill-opacity=".3"/><text x="617" y="159" text-anchor="start">-0.10%</text></g><text x="100" y="164" text-anchor="start">BenchmarkLast</text><g font-size="75%" font-style="italic"><rect width="8" height="20" x="604" y="170" fill="red" fill-opacity=".3"/><text x="599" y="185" text-anchor="end">+2.86%</text></g><text x="100" y="190" text-anchor="start">BenchmarkEq</text><g font-size="75%" font-style="italic"><rect width="8" height="20" x="604" y="196" fill="red" fill-opacity=".3"/><text x="599" y="211" text-anchor="end">+2.67%</text></g><text x="100" y="216" text-anchor="start">BenchmarkSlice</text><g font-size="75%" font-style="italic"><rect width="32" height="20" x="612" y="222" fill="green" fill-opacity=".3"/><text x="649" y="237" text-anchor="start">-10.82%</text></g><text x="100" y="242" text-anchor="start">BenchmarkGet</text><g font-size="75%" font-style="italic"><rect width="132" height="20" x="612" y="248" fill="green" fill-opacity=".3"/><text x="749" y="263" text-anchor="start">-44.06%</text></g><text x="100" y="268" text-anchor="start">BenchmarkIndex</text><g font-size="75%" font-style="italic"><rect width="156" height="20" x="612" y="274" fill="green" fill-opacity=".3"/><text x="773" y="289" text-anchor="start">-52.26%</text></g><text x="100" y="294" text-anchor="start">BenchmarkIndexSelector</text><g font-size="75%" font-style="italic"><rect width="27" height="20" x="612" y="300" fill="green" fill-opacity=".3"/><text x="644" y="315" text-anchor="start">-9.32%</text></g><text x="100" y="320" text-anchor="start">BenchmarkIndexOfNode</text><g font-size="75%" font-style="italic"><rect width="7" height="20" x="612" y="326" fill="green" fill-opacity=".3"/><text x="624" y="341" text-anchor="start">-2.48%</text></g><text x="100" y="346" text-anchor="start">BenchmarkIndexOfSelection</text><g font-size="75%" font-style="italic"><rect width="104" height="20" x="612" y="352" fill="green" fill-opacity=".3"/><text x="721" y="367" text-anchor="start">-34.96%</text></g><text x="100" y="372" text-anchor="start">BenchmarkMetalReviewExample</text><g font-size="75%" font-style="italic"><rect width="177" height="20" x="612" y="378" fill="green" fill-opacity=".3"/><text x="794" y="393" text-anchor="start">-59.16%</text></g><text x="100" y="398" text-anchor="start">BenchmarkAdd</text><g font-size="75%" font-style="italic"><rect width="0" height="20" x="612" y="404" fill="green" fill-opacity=".3"/><text x="617" y="419" text-anchor="start">+0.00%</text></g><text x="100" y="424" text-anchor="start">BenchmarkAddSelection</text><g font-size="75%" font-style="italic"><rect width="10" height="20" x="602" y="430" fill="red" fill-opacity=".3"/><text x="597" y="445" text-anchor="end">+3.47%</text></g><text x="100" y="450" text-anchor="start">BenchmarkAddNodes</text><g font-size="75%" font-style="italic"><rect width="7" height="20" x="612" y="456" fill="green" fill-opacity=".3"/><text x="624" y="471" text-anchor="start">-2.51%</text></g><text x="100" y="476" text-anchor="start">BenchmarkAndSelf</text><g font-size="75%" font-style="italic"><rect width="41" height="20" x="612" y="482" fill="green" fill-opacity=".3"/><text x="658" y="497" text-anchor="start">-13.96%</text></g><text x="100" y="502" text-anchor="start">BenchmarkFilter</text><g font-size="75%" font-style="italic"><rect width="43" height="20" x="612" y="508" fill="green" fill-opacity=".3"/><text x="660" y="523" text-anchor="start">-14.53%</text></g><text x="100" y="528" text-anchor="start">BenchmarkNot</text><g font-size="75%" font-style="italic"><rect width="11" height="20" x="612" y="534" fill="green" fill-opacity=".3"/><text x="628" y="549" text-anchor="start">-3.81%</text></g><text x="100" y="554" text-anchor="start">BenchmarkFilterFunction</text><g font-size="75%" font-style="italic"><rect width="8" height="20" x="612" y="560" fill="green" fill-opacity=".3"/><text x="625" y="575" text-anchor="start">-2.83%</text></g><text x="100" y="580" text-anchor="start">BenchmarkNotFunction</text><g font-size="75%" font-style="italic"><rect width="13" height="20" x="612" y="586" fill="green" fill-opacity=".3"/><text x="630" y="601" text-anchor="start">-4.63%</text></g><text x="100" y="606" text-anchor="start">BenchmarkFilterNodes</text><g font-size="75%" font-style="italic"><rect width="6" height="20" x="612" y="612" fill="green" fill-opacity=".3"/><text x="623" y="627" text-anchor="start">-2.32%</text></g><text x="100" y="632" text-anchor="start">BenchmarkNotNodes</text><g font-size="75%" font-style="italic"><rect width="12" height="20" x="612" y="638" fill="green" fill-opacity=".3"/><text x="629" y="653" text-anchor="start">-4.23%</text></g><text x="100" y="658" text-anchor="start">BenchmarkFilterSelection</text><g font-size="75%" font-style="italic"><rect width="9" height="20" x="612" y="664" fill="green" fill-opacity=".3"/><text x="626" y="679" text-anchor="start">-3.31%</text></g><text x="100" y="684" text-anchor="start">BenchmarkNotSelection</text><g font-size="75%" font-style="italic"><rect width="101" height="20" x="612" y="690" fill="green" fill-opacity=".3"/><text x="718" y="705" text-anchor="start">-33.69%</text></g><text x="100" y="710" text-anchor="start">BenchmarkHas</text><g font-size="75%" font-style="italic"><rect width="13" height="20" x="612" y="716" fill="green" fill-opacity=".3"/><text x="630" y="731" text-anchor="start">-4.53%</text></g><text x="100" y="736" text-anchor="start">BenchmarkHasNodes</text><g font-size="75%" font-style="italic"><rect width="15" height="20" x="612" y="742" fill="green" fill-opacity=".3"/><text x="632" y="757" text-anchor="start">-5.30%</text></g><text x="100" y="762" text-anchor="start">BenchmarkHasSelection</text><g font-size="75%" font-style="italic"><rect width="34" height="20" x="578" y="768" fill="red" fill-opacity=".3"/><text x="573" y="783" text-anchor="end">+11.35%</text></g><text x="100" y="788" text-anchor="start">BenchmarkEnd</text><g font-size="75%" font-style="italic"><rect width="9" height="20" x="612" y="794" fill="green" fill-opacity=".3"/><text x="626" y="809" text-anchor="start">-3.33%</text></g><text x="100" y="814" text-anchor="start">BenchmarkEach</text><g font-size="75%" font-style="italic"><rect width="27" height="20" x="612" y="820" fill="green" fill-opacity=".3"/><text x="644" y="835" text-anchor="start">-9.16%</text></g><text x="100" y="840" text-anchor="start">BenchmarkMap</text><g font-size="75%" font-style="italic"><rect width="57" height="20" x="612" y="846" fill="green" fill-opacity=".3"/><text x="674" y="861" text-anchor="start">-19.15%</text></g><text x="100" y="866" text-anchor="start">BenchmarkAttr</text><g font-size="75%" font-style="italic"><rect width="9" height="20" x="612" y="872" fill="green" fill-opacity=".3"/><text x="626" y="887" text-anchor="start">-3.24%</text></g><text x="100" y="892" text-anchor="start">BenchmarkText</text><g font-size="75%" font-style="italic"><rect width="183" height="20" x="612" y="898" fill="green" fill-opacity=".3"/><text x="800" y="913" text-anchor="start">-61.25%</text></g><text x="100" y="918" text-anchor="start">BenchmarkLength</text><g font-size="75%" font-style="italic"><rect width="35" height="20" x="612" y="924" fill="green" fill-opacity=".3"/><text x="652" y="939" text-anchor="start">-11.92%</text></g><text x="100" y="944" text-anchor="start">BenchmarkHtml</text><g font-size="75%" font-style="italic"><rect width="49" height="20" x="612" y="950" fill="green" fill-opacity=".3"/><text x="666" y="965" text-anchor="start">-16.46%</text></g><text x="100" y="970" text-anchor="start">BenchmarkIs</text><g font-size="75%" font-style="italic"><rect width="81" height="20" x="612" y="976" fill="green" fill-opacity=".3"/><text x="698" y="991" text-anchor="start">-27.31%</text></g><text x="100" y="996" text-anchor="start">BenchmarkIsPositional</text><g font-size="75%" font-style="italic"><rect width="40" height="20" x="612" y="1002" fill="green" fill-opacity=".3"/><text x="657" y="1017" text-anchor="start">-13.49%</text></g><text x="100" y="1022" text-anchor="start">BenchmarkIsFunction</text><g font-size="75%" font-style="italic"><rect width="5" height="20" x="612" y="1028" fill="green" fill-opacity=".3"/><text x="622" y="1043" text-anchor="start">-1.71%</text></g><text x="100" y="1048" text-anchor="start">BenchmarkIsSelection</text><g font-size="75%" font-style="italic"><rect width="9" height="20" x="612" y="1054" fill="green" fill-opacity=".3"/><text x="626" y="1069" text-anchor="start">-3.03%</text></g><text x="100" y="1074" text-anchor="start">BenchmarkIsNodes</text><g font-size="75%" font-style="italic"><rect width="60" height="20" x="612" y="1080" fill="green" fill-opacity=".3"/><text x="677" y="1095" text-anchor="start">-20.30%</text></g><text x="100" y="1100" text-anchor="start">BenchmarkHasClass</text><g font-size="75%" font-style="italic"><rect width="33" height="20" x="612" y="1106" fill="green" fill-opacity=".3"/><text x="650" y="1121" text-anchor="start">-11.29%</text></g><text x="100" y="1126" text-anchor="start">BenchmarkContains</text><g font-size="75%" font-style="italic"><rect width="152" height="20" x="612" y="1132" fill="green" fill-opacity=".3"/><text x="769" y="1147" text-anchor="start">-50.88%</text></g><text x="100" y="1152" text-anchor="start">BenchmarkFind</text><g font-size="75%" font-style="italic"><rect width="135" height="20" x="612" y="1158" fill="green" fill-opacity=".3"/><text x="752" y="1173" text-anchor="start">-45.28%</text></g><text x="100" y="1178" text-anchor="start">BenchmarkFindWithinSelection</text><g font-size="75%" font-style="italic"><rect width="68" height="20" x="544" y="1184" fill="red" fill-opacity=".3"/><text x="539" y="1199" text-anchor="end">+22.95%</text></g><text x="100" y="1204" text-anchor="start">BenchmarkFindSelection</text><g font-size="75%" font-style="italic"><rect width="68" height="20" x="544" y="1210" fill="red" fill-opacity=".3"/><text x="539" y="1225" text-anchor="end">+22.68%</text></g><text x="100" y="1230" text-anchor="start">BenchmarkFindNodes</text><g font-size="75%" font-style="italic"><rect width="195" height="20" x="612" y="1236" fill="green" fill-opacity=".3"/><text x="812" y="1251" text-anchor="start">-65.08%</text></g><text x="100" y="1256" text-anchor="start">BenchmarkContents</text><g font-size="75%" font-style="italic"><rect width="179" height="20" x="612" y="1262" fill="green" fill-opacity=".3"/><text x="796" y="1277" text-anchor="start">-59.77%</text></g><text x="100" y="1282" text-anchor="start">BenchmarkContentsFiltered</text><g font-size="75%" font-style="italic"><rect width="192" height="20" x="612" y="1288" fill="green" fill-opacity=".3"/><text x="809" y="1303" text-anchor="start">-64.31%</text></g><text x="100" y="1308" text-anchor="start">BenchmarkChildren</text><g font-size="75%" font-style="italic"><rect width="118" height="20" x="612" y="1314" fill="green" fill-opacity=".3"/><text x="735" y="1329" text-anchor="start">-39.56%</text></g><text x="100" y="1334" text-anchor="start">BenchmarkChildrenFiltered</text><g font-size="75%" font-style="italic"><rect width="19" height="20" x="612" y="1340" fill="green" fill-opacity=".3"/><text x="636" y="1355" text-anchor="start">-6.61%</text></g><text x="100" y="1360" text-anchor="start">BenchmarkParent</text><g font-size="75%" font-style="italic"><rect width="32" height="20" x="612" y="1366" fill="green" fill-opacity=".3"/><text x="649" y="1381" text-anchor="start">-10.92%</text></g><text x="100" y="1386" text-anchor="start">BenchmarkParentFiltered</text><g font-size="75%" font-style="italic"><rect width="5" height="20" x="612" y="1392" fill="green" fill-opacity=".3"/><text x="622" y="1407" text-anchor="start">-1.72%</text></g><text x="100" y="1412" text-anchor="start">BenchmarkParents</text><g font-size="75%" font-style="italic"><rect width="7" height="20" x="612" y="1418" fill="green" fill-opacity=".3"/><text x="624" y="1433" text-anchor="start">-2.37%</text></g><text x="100" y="1438" text-anchor="start">BenchmarkParentsFiltered</text><g font-size="75%" font-style="italic"><rect width="142" height="20" x="612" y="1444" fill="green" fill-opacity=".3"/><text x="759" y="1459" text-anchor="start">-47.60%</text></g><text x="100" y="1464" text-anchor="start">BenchmarkParentsUntil</text><g font-size="75%" font-style="italic"><rect width="109" height="20" x="612" y="1470" fill="green" fill-opacity=".3"/><text x="726" y="1485" text-anchor="start">-36.39%</text></g><text x="100" y="1490" text-anchor="start">BenchmarkParentsUntilSelection</text><g font-size="75%" font-style="italic"><rect width="107" height="20" x="612" y="1496" fill="green" fill-opacity=".3"/><text x="724" y="1511" text-anchor="start">-35.99%</text></g><text x="100" y="1516" text-anchor="start">BenchmarkParentsUntilNodes</text><g font-size="75%" font-style="italic"><rect width="146" height="20" x="612" y="1522" fill="green" fill-opacity=".3"/><text x="763" y="1537" text-anchor="start">-48.84%</text></g><text x="100" y="1542" text-anchor="start">BenchmarkParentsFilteredUntil</text><g font-size="75%" font-style="italic"><rect width="98" height="20" x="612" y="1548" fill="green" fill-opacity=".3"/><text x="715" y="1563" text-anchor="start">-32.75%</text></g><text x="100" y="1568" text-anchor="start">BenchmarkParentsFilteredUntilSelection</text><g font-size="75%" font-style="italic"><rect width="99" height="20" x="612" y="1574" fill="green" fill-opacity=".3"/><text x="716" y="1589" text-anchor="start">-33.12%</text></g><text x="100" y="1594" text-anchor="start">BenchmarkParentsFilteredUntilNodes</text><g font-size="75%" font-style="italic"><rect width="89" height="20" x="612" y="1600" fill="green" fill-opacity=".3"/><text x="706" y="1615" text-anchor="start">-29.78%</text></g><text x="100" y="1620" text-anchor="start">BenchmarkSiblings</text><g font-size="75%" font-style="italic"><rect width="92" height="20" x="612" y="1626" fill="green" fill-opacity=".3"/><text x="709" y="1641" text-anchor="start">-30.89%</text></g><text x="100" y="1646" text-anchor="start">BenchmarkSiblingsFiltered</text><g font-size="75%" font-style="italic"><rect width="204" height="20" x="612" y="1652" fill="green" fill-opacity=".3"/><text x="821" y="1667" text-anchor="start">-68.19%</text></g><text x="100" y="1672" text-anchor="start">BenchmarkNext</text><g font-size="75%" font-style="italic"><rect width="199" height="20" x="612" y="1678" fill="green" fill-opacity=".3"/><text x="816" y="1693" text-anchor="start">-66.59%</text></g><text x="100" y="1698" text-anchor="start">BenchmarkNextFiltered</text><g font-size="75%" font-style="italic"><rect width="93" height="20" x="612" y="1704" fill="green" fill-opacity=".3"/><text x="710" y="1719" text-anchor="start">-31.08%</text></g><text x="100" y="1724" text-anchor="start">BenchmarkNextAll</text><g font-size="75%" font-style="italic"><rect width="90" height="20" x="612" y="1730" fill="green" fill-opacity=".3"/><text x="707" y="1745" text-anchor="start">-30.03%</text></g><text x="100" y="1750" text-anchor="start">BenchmarkNextAllFiltered</text><g font-size="75%" font-style="italic"><rect width="204" height="20" x="612" y="1756" fill="green" fill-opacity=".3"/><text x="821" y="1771" text-anchor="start">-68.32%</text></g><text x="100" y="1776" text-anchor="start">BenchmarkPrev</text><g font-size="75%" font-style="italic"><rect width="199" height="20" x="612" y="1782" fill="green" fill-opacity=".3"/><text x="816" y="1797" text-anchor="start">-66.65%</text></g><text x="100" y="1802" text-anchor="start">BenchmarkPrevFiltered</text><g font-size="75%" font-style="italic"><rect width="129" height="20" x="612" y="1808" fill="green" fill-opacity=".3"/><text x="746" y="1823" text-anchor="start">-43.33%</text></g><text x="100" y="1828" text-anchor="start">BenchmarkPrevAll</text><g font-size="75%" font-style="italic"><rect width="129" height="20" x="612" y="1834" fill="green" fill-opacity=".3"/><text x="746" y="1849" text-anchor="start">-43.24%</text></g><text x="100" y="1854" text-anchor="start">BenchmarkPrevAllFiltered</text><g font-size="75%" font-style="italic"><rect width="162" height="20" x="612" y="1860" fill="green" fill-opacity=".3"/><text x="779" y="1875" text-anchor="start">-54.27%</text></g><text x="100" y="1880" text-anchor="start">BenchmarkNextUntil</text><g font-size="75%" font-style="italic"><rect width="113" height="20" x="612" y="1886" fill="green" fill-opacity=".3"/><text x="730" y="1901" text-anchor="start">-37.90%</text></g><text x="100" y="1906" text-anchor="start">BenchmarkNextUntilSelection</text><g font-size="75%" font-style="italic"><rect width="129" height="20" x="612" y="1912" fill="green" fill-opacity=".3"/><text x="746" y="1927" text-anchor="start">-43.21%</text></g><text x="100" y="1932" text-anchor="start">BenchmarkNextUntilNodes</text><g font-size="75%" font-style="italic"><rect width="147" height="20" x="612" y="1938" fill="green" fill-opacity=".3"/><text x="764" y="1953" text-anchor="start">-49.33%</text></g><text x="100" y="1958" text-anchor="start">BenchmarkPrevUntil</text><g font-size="75%" font-style="italic"><rect width="111" height="20" x="612" y="1964" fill="green" fill-opacity=".3"/><text x="728" y="1979" text-anchor="start">-37.02%</text></g><text x="100" y="1984" text-anchor="start">BenchmarkPrevUntilSelection</text><g font-size="75%" font-style="italic"><rect width="133" height="20" x="612" y="1990" fill="green" fill-opacity=".3"/><text x="750" y="2005" text-anchor="start">-44.59%</text></g><text x="100" y="2010" text-anchor="start">BenchmarkPrevUntilNodes</text><g font-size="75%" font-style="italic"><rect width="173" height="20" x="612" y="2016" fill="green" fill-opacity=".3"/><text x="790" y="2031" text-anchor="start">-57.79%</text></g><text x="100" y="2036" text-anchor="start">BenchmarkNextFilteredUntil</text><g font-size="75%" font-style="italic"><rect width="109" height="20" x="612" y="2042" fill="green" fill-opacity=".3"/><text x="726" y="2057" text-anchor="start">-36.61%</text></g><text x="100" y="2062" text-anchor="start">BenchmarkNextFilteredUntilSelection</text><g font-size="75%" font-style="italic"><rect width="113" height="20" x="612" y="2068" fill="green" fill-opacity=".3"/><text x="730" y="2083" text-anchor="start">-37.81%</text></g><text x="100" y="2088" text-anchor="start">BenchmarkNextFilteredUntilNodes</text><g font-size="75%" font-style="italic"><rect width="177" height="20" x="612" y="2094" fill="green" fill-opacity=".3"/><text x="794" y="2109" text-anchor="start">-59.21%</text></g><text x="100" y="2114" text-anchor="start">BenchmarkPrevFilteredUntil</text><g font-size="75%" font-style="italic"><rect width="108" height="20" x="612" y="2120" fill="green" fill-opacity=".3"/><text x="725" y="2135" text-anchor="start">-36.20%</text></g><text x="100" y="2140" text-anchor="start">BenchmarkPrevFilteredUntilSelection</text><g font-size="75%" font-style="italic"><rect width="108" height="20" x="612" y="2146" fill="green" fill-opacity=".3"/><text x="725" y="2161" text-anchor="start">-36.05%</text></g><text x="100" y="2166" text-anchor="start">BenchmarkPrevFilteredUntilNodes</text></g></svg>