<svg xmlns="http://www.w3.org/2000/svg" xmlns:xlink="http://www.w3.org/1999/xlink" width="1024" height="768"><g font-family="sans-serif" font-size="20"><rect width="1024" height="768" x="0" y="0" fill="#fff"/><g font-size="75%" font-style="italic"><rect width="6" height="20" x="606" y="118" fill="red" fill-opacity=".3"/><text x="601" y="133" text-anchor="end">+2.12%</text></g><text x="100" y="138" text-anchor="start">BenchmarkFirst</text><g font-size="75%" font-style="italic"><rect width="3" height="20" x="609" y="144" fill="red" fill-opacity=".3"/><text x="604" y="159" text-anchor="end">+1.06%</text></g><text x="100" y="164" text-anchor="start">BenchmarkLast</text><g font-size="75%" font-style="italic"><rect width="10" height="20" x="602" y="170" fill="red" fill-opacity=".3"/><text x="597" y="185" text-anchor="end">+3.63%</text></g><text x="100" y="190" text-anchor="start">BenchmarkEq</text><g font-size="75%" font-style="italic"><rect width="8" height="20" x="604" y="196" fill="red" fill-opacity=".3"/><text x="599" y="211" text-anchor="end">+2.67%</text></g><text x="100" y="216" text-anchor="start">BenchmarkSlice</text><g font-size="75%" font-style="italic"><rect width="72" height="20" x="612" y="222" fill="green" fill-opacity=".3"/><text x="689" y="237" text-anchor="start">-24.26%</text></g><text x="100" y="242" text-anchor="start">BenchmarkGet</text><g font-size="75%" font-style="italic"><rect width="125" height="20" x="612" y="248" fill="green" fill-opacity=".3"/><text x="742" y="263" text-anchor="start">-41.71%</text></g><text x="100" y="268" text-anchor="start">BenchmarkIndex</text><g font-size="75%" font-style="italic"><rect width="151" height="20" x="612" y="274" fill="green" fill-opacity=".3"/><text x="768" y="289" text-anchor="start">-50.42%</text></g><text x="100" y="294" text-anchor="start">BenchmarkIndexSelector</text><g font-size="75%" font-style="italic"><rect width="17" height="20" x="595" y="300" fill="red" fill-opacity=".3"/><text x="590" y="315" text-anchor="end">+5.94%</text></g><text x="100" y="320" text-anchor="start">BenchmarkIndexOfNode</text><g font-size="75%" font-style="italic"><rect width="24" height="20" x="588" y="326" fill="red" fill-opacity=".3"/><text x="583" y="341" text-anchor="end">+8.26%</text></g><text x="100" y="346" text-anchor="start">BenchmarkIndexOfSelection</text><g font-size="75%" font-style="italic"><rect width="98" height="20" x="612" y="352" fill="green" fill-opacity=".3"/><text x="715" y="367" text-anchor="start">-32.94%</text></g><text x="100" y="372" text-anchor="start">BenchmarkMetalReviewExample</text><g font-size="75%" font-style="italic"><rect width="170" height="20" x="612" y="378" fill="green" fill-opacity=".3"/><text x="787" y="393" text-anchor="start">-56.84%</text></g><text x="100" y="398" text-anchor="start">BenchmarkAdd</text><g font-size="75%" font-style="italic"><rect width="19" height="20" x="593" y="404" fill="red" fill-opacity=".3"/><text x="588" y="419" text-anchor="end">+6.63%</text></g><text x="100" y="424" text-anchor="start">BenchmarkAddSelection</text><g font-size="75%" font-style="italic"><rect width="28" height="20" x="584" y="430" fill="red" fill-opacity=".3"/><text x="579" y="445" text-anchor="end">+9.42%</text></g><text x="100" y="450" text-anchor="start">BenchmarkAddNodes</text><g font-size="75%" font-style="italic"><rect width="8" height="20" x="604" y="456" fill="red" fill-opacity=".3"/><text x="599" y="471" text-anchor="end">+2.93%</text></g><text x="100" y="476" text-anchor="start">BenchmarkAndSelf</text><g font-size="75%" font-style="italic"><rect width="41" height="20" x="612" y="482" fill="green" fill-opacity=".3"/><text x="658" y="497" text-anchor="start">-13.75%</text></g><text x="100" y="502" text-anchor="start">BenchmarkFilter</text><g font-size="75%" font-style="italic"><rect width="44" height="20" x="612" y="508" fill="green" fill-opacity=".3"/><text x="661" y="523" text-anchor="start">-14.90%</text></g><text x="100" y="528" text-anchor="start">BenchmarkNot</text><g font-size="75%" font-style="italic"><rect width="3" height="20" x="609" y="534" fill="red" fill-opacity=".3"/><text x="604" y="549" text-anchor="end">+1.07%</text></g><text x="100" y="554" text-anchor="start">BenchmarkFilterFunction</text><g font-size="75%" font-style="italic"><rect width="14" height="20" x="598" y="560" fill="red" fill-opacity=".3"/><text x="593" y="575" text-anchor="end">+4.91%</text></g><text x="100" y="580" text-anchor="start">BenchmarkNotFunction</text><g font-size="75%" font-style="italic"><rect width="3" height="20" x="609" y="586" fill="red" fill-opacity=".3"/><text x="604" y="601" text-anchor="end">+1.03%</text></g><text x="100" y="606" text-anchor="start">BenchmarkFilterNodes</text><g font-size="75%" font-style="italic"><rect width="12" height="20" x="600" y="612" fill="red" fill-opacity=".3"/><text x="595" y="627" text-anchor="end">+4.22%</text></g><text x="100" y="632" text-anchor="start">BenchmarkNotNodes</text><g font-size="75%" font-style="italic"><rect width="3" height="20" x="612" y="638" fill="green" fill-opacity=".3"/><text x="620" y="653" text-anchor="start">-1.00%</text></g><text x="100" y="658" text-anchor="start">BenchmarkFilterSelection</text><g font-size="75%" font-style="italic"><rect width="12" height="20" x="600" y="664" fill="red" fill-opacity=".3"/><text x="595" y="679" text-anchor="end">+4.00%</text></g><text x="100" y="684" text-anchor="start">BenchmarkNotSelection</text><g font-size="75%" font-style="italic"><rect width="96" height="20" x="612" y="690" fill="green" fill-opacity=".3"/><text x="713" y="705" text-anchor="start">-32.12%</text></g><text x="100" y="710" text-anchor="start">BenchmarkHas</text><g font-size="75%" font-style="italic"><rect width="4" height="20" x="608" y="716" fill="red" fill-opacity=".3"/><text x="603" y="731" text-anchor="end">+1.59%</text></g><text x="100" y="736" text-anchor="start">BenchmarkHasNodes</text><g font-size="75%" font-style="italic"><rect width="4" height="20" x="608" y="742" fill="red" fill-opacity=".3"/><text x="603" y="757" text-anchor="end">+1.56%</text></g><text x="100" y="762" text-anchor="start">BenchmarkHasSelection</text><g font-size="75%" font-style="italic"><rect width="46" height="20" x="566" y="768" fill="red" fill-opacity=".3"/><text x="561" y="783" text-anchor="end">+15.54%</text></g><text x="100" y="788" text-anchor="start">BenchmarkEnd</text><g font-size="75%" font-style="italic"><rect width="5" height="20" x="607" y="794" fill="red" fill-opacity=".3"/><text x="602" y="809" text-anchor="end">+1.77%</text></g><text x="100" y="814" text-anchor="start">BenchmarkEach</text><g font-size="75%" font-style="italic"><rect width="10" height="20" x="612" y="820" fill="green" fill-opacity=".3"/><text x="627" y="835" text-anchor="start">-3.61%</text></g><text x="100" y="840" text-anchor="start">BenchmarkMap</text><g font-size="75%" font-style="italic"><rect width="49" height="20" x="612" y="846" fill="green" fill-opacity=".3"/><text x="666" y="861" text-anchor="start">-16.48%</text></g><text x="100" y="866" text-anchor="start">BenchmarkAttr</text><g font-size="75%" font-style="italic"><rect width="3" height="20" x="609" y="872" fill="red" fill-opacity=".3"/><text x="604" y="887" text-anchor="end">+1.33%</text></g><text x="100" y="892" text-anchor="start">BenchmarkText</text><g font-size="75%" font-style="italic"><rect width="177" height="20" x="612" y="898" fill="green" fill-opacity=".3"/><text x="794" y="913" text-anchor="start">-59.21%</text></g><text x="100" y="918" text-anchor="start">BenchmarkLength</text><g font-size="75%" font-style="italic"><rect width="27" height="20" x="612" y="924" fill="green" fill-opacity=".3"/><text x="644" y="939" text-anchor="start">-9.01%</text></g><text x="100" y="944" text-anchor="start">BenchmarkHtml</text><g font-size="75%" font-style="italic"><rect width="50" height="20" x="612" y="950" fill="green" fill-opacity=".3"/><text x="667" y="965" text-anchor="start">-16.73%</text></g><text x="100" y="970" text-anchor="start">BenchmarkIs</text><g font-size="75%" font-style="italic"><rect width="75" height="20" x="612" y="976" fill="green" fill-opacity=".3"/><text x="692" y="991" text-anchor="start">-25.08%</text></g><text x="100" y="996" text-anchor="start">BenchmarkIsPositional</text><g font-size="75%" font-style="italic"><rect width="34" height="20" x="612" y="1002" fill="green" fill-opacity=".3"/><text x="651" y="1017" text-anchor="start">-11.55%</text></g><text x="100" y="1022" text-anchor="start">BenchmarkIsFunction</text><g font-size="75%" font-style="italic"><rect width="3" height="20" x="609" y="1028" fill="red" fill-opacity=".3"/><text x="604" y="1043" text-anchor="end">+1.28%</text></g><text x="100" y="1048" text-anchor="start">BenchmarkIsSelection</text><g font-size="75%" font-style="italic"><rect width="6" height="20" x="606" y="1054" fill="red" fill-opacity=".3"/><text x="601" y="1069" text-anchor="end">+2.10%</text></g><text x="100" y="1074" text-anchor="start">BenchmarkIsNodes</text><g font-size="75%" font-style="italic"><rect width="47" height="20" x="612" y="1080" fill="green" fill-opacity=".3"/><text x="664" y="1095" text-anchor="start">-15.99%</text></g><text x="100" y="1100" text-anchor="start">BenchmarkHasClass</text><g font-size="75%" font-style="italic"><rect width="7" height="20" x="612" y="1106" fill="green" fill-opacity=".3"/><text x="624" y="1121" text-anchor="start">-2.65%</text></g><text x="100" y="1126" text-anchor="start">BenchmarkContains</text><g font-size="75%" font-style="italic"><rect width="145" height="20" x="612" y="1132" fill="green" fill-opacity=".3"/><text x="762" y="1147" text-anchor="start">-48.54%</text></g><text x="100" y="1152" text-anchor="start">BenchmarkFind</text><g font-size="75%" font-style="italic"><rect width="128" height="20" x="612" y="1158" fill="green" fill-opacity=".3"/><text x="745" y="1173" text-anchor="start">-42.71%</text></g><text x="100" y="1178" text-anchor="start">BenchmarkFindWithinSelection</text><g font-size="75%" font-style="italic"><rect width="86" height="20" x="526" y="1184" fill="red" fill-opacity=".3"/><text x="521" y="1199" text-anchor="end">+28.77%</text></g><text x="100" y="1204" text-anchor="start">BenchmarkFindSelection</text><g font-size="75%" font-style="italic"><rect width="85" height="20" x="527" y="1210" fill="red" fill-opacity=".3"/><text x="522" y="1225" text-anchor="end">+28.47%</text></g><text x="100" y="1230" text-anchor="start">BenchmarkFindNodes</text><g font-size="75%" font-style="italic"><rect width="188" height="20" x="612" y="1236" fill="green" fill-opacity=".3"/><text x="805" y="1251" text-anchor="start">-62.84%</text></g><text x="100" y="1256" text-anchor="start">BenchmarkContents</text><g font-size="75%" font-style="italic"><rect width="174" height="20" x="612" y="1262" fill="green" fill-opacity=".3"/><text x="791" y="1277" text-anchor="start">-58.06%</text></g><text x="100" y="1282" text-anchor="start">BenchmarkContentsFiltered</text><g font-size="75%" font-style="italic"><rect width="189" height="20" x="612" y="1288" fill="green" fill-opacity=".3"/><text x="806" y="1303" text-anchor="start">-63.13%</text></g><text x="100" y="1308" text-anchor="start">BenchmarkChildren</text><g font-size="75%" font-style="italic"><rect width="114" height="20" x="612" y="1314" fill="green" fill-opacity=".3"/><text x="731" y="1329" text-anchor="start">-38.24%</text></g><text x="100" y="1334" text-anchor="start">BenchmarkChildrenFiltered</text><g font-size="75%" font-style="italic"><rect width="10" height="20" x="612" y="1340" fill="green" fill-opacity=".3"/><text x="627" y="1355" text-anchor="start">-3.66%</text></g><text x="100" y="1360" text-anchor="start">BenchmarkParent</text><g font-size="75%" font-style="italic"><rect width="18" height="20" x="612" y="1366" fill="green" fill-opacity=".3"/><text x="635" y="1381" text-anchor="start">-6.06%</text></g><text x="100" y="1386" text-anchor="start">BenchmarkParentFiltered</text><g font-size="75%" font-style="italic"><rect width="10" height="20" x="602" y="1392" fill="red" fill-opacity=".3"/><text x="597" y="1407" text-anchor="end">+3.64%</text></g><text x="100" y="1412" text-anchor="start">BenchmarkParents</text><g font-size="75%" font-style="italic"><rect width="4" height="20" x="608" y="1418" fill="red" fill-opacity=".3"/><text x="603" y="1433" text-anchor="end">+1.44%</text></g><text x="100" y="1438" text-anchor="start">BenchmarkParentsFiltered</text><g font-size="75%" font-style="italic"><rect width="133" height="20" x="612" y="1444" fill="green" fill-opacity=".3"/><text x="750" y="1459" text-anchor="start">-44.35%</text></g><text x="100" y="1464" text-anchor="start">BenchmarkParentsUntil</text><g font-size="75%" font-style="italic"><rect width="95" height="20" x="612" y="1470" fill="green" fill-opacity=".3"/><text x="712" y="1485" text-anchor="start">-31.99%</text></g><text x="100" y="1490" text-anchor="start">BenchmarkParentsUntilSelection</text><g font-size="75%" font-style="italic"><rect width="97" height="20" x="612" y="1496" fill="green" fill-opacity=".3"/><text x="714" y="1511" text-anchor="start">-32.62%</text></g><text x="100" y="1516" text-anchor="start">BenchmarkParentsUntilNodes</text><g font-size="75%" font-style="italic"><rect width="137" height="20" x="612" y="1522" fill="green" fill-opacity=".3"/><text x="754" y="1537" text-anchor="start">-45.83%</text></g><text x="100" y="1542" text-anchor="start">BenchmarkParentsFilteredUntil</text><g font-size="75%" font-style="italic"><rect width="90" height="20" x="612" y="1548" fill="green" fill-opacity=".3"/><text x="707" y="1563" text-anchor="start">-30.05%</text></g><text x="100" y="1568" text-anchor="start">BenchmarkParentsFilteredUntilSelection</text><g font-size="75%" font-style="italic"><rect width="89" height="20" x="612" y="1574" fill="green" fill-opacity=".3"/><text x="706" y="1589" text-anchor="start">-29.97%</text></g><text x="100" y="1594" text-anchor="start">BenchmarkParentsFilteredUntilNodes</text><g font-size="75%" font-style="italic"><rect width="77" height="20" x="612" y="1600" fill="green" fill-opacity=".3"/><text x="694" y="1615" text-anchor="start">-25.96%</text></g><text x="100" y="1620" text-anchor="start">BenchmarkSiblings</text><g font-size="75%" font-style="italic"><rect width="80" height="20" x="612" y="1626" fill="green" fill-opacity=".3"/><text x="697" y="1641" text-anchor="start">-26.67%</text></g><text x="100" y="1646" text-anchor="start">BenchmarkSiblingsFiltered</text><g font-size="75%" font-style="italic"><rect width="199" height="20" x="612" y="1652" fill="green" fill-opacity=".3"/><text x="816" y="1667" text-anchor="start">-66.40%</text></g><text x="100" y="1672" text-anchor="start">BenchmarkNext</text><g font-size="75%" font-style="italic"><rect width="193" height="20" x="612" y="1678" fill="green" fill-opacity=".3"/><text x="810" y="1693" text-anchor="start">-64.46%</text></g><text x="100" y="1698" text-anchor="start">BenchmarkNextFiltered</text><g font-size="75%" font-style="italic"><rect width="79" height="20" x="612" y="1704" fill="green" fill-opacity=".3"/><text x="696" y="1719" text-anchor="start">-26.50%</text></g><text x="100" y="1724" text-anchor="start">BenchmarkNextAll</text><g font-size="75%" font-style="italic"><rect width="78" height="20" x="612" y="1730" fill="green" fill-opacity=".3"/><text x="695" y="1745" text-anchor="start">-26.27%</text></g><text x="100" y="1750" text-anchor="start">BenchmarkNextAllFiltered</text><g font-size="75%" font-style="italic"><rect width="200" height="20" x="612" y="1756" fill="green" fill-opacity=".3"/><text x="817" y="1771" text-anchor="start">-66.84%</text></g><text x="100" y="1776" text-anchor="start">BenchmarkPrev</text><g font-size="75%" font-style="italic"><rect width="193" height="20" x="612" y="1782" fill="green" fill-opacity=".3"/><text x="810" y="1797" text-anchor="start">-64.35%</text></g><text x="100" y="1802" text-anchor="start">BenchmarkPrevFiltered</text><g font-size="75%" font-style="italic"><rect width="120" height="20" x="612" y="1808" fill="green" fill-opacity=".3"/><text x="737" y="1823" text-anchor="start">-40.05%</text></g><text x="100" y="1828" text-anchor="start">BenchmarkPrevAll</text><g font-size="75%" font-style="italic"><rect width="119" height="20" x="612" y="1834" fill="green" fill-opacity=".3"/><text x="736" y="1849" text-anchor="start">-39.74%</text></g><text x="100" y="1854" text-anchor="start">BenchmarkPrevAllFiltered</text><g font-size="75%" font-style="italic"><rect width="155" height="20" x="612" y="1860" fill="green" fill-opacity=".3"/><text x="772" y="1875" text-anchor="start">-51.73%</text></g><text x="100" y="1880" text-anchor="start">BenchmarkNextUntil</text><g font-size="75%" font-style="italic"><rect width="100" height="20" x="612" y="1886" fill="green" fill-opacity=".3"/><text x="717" y="1901" text-anchor="start">-33.42%</text></g><text x="100" y="1906" text-anchor="start">BenchmarkNextUntilSelection</text><g font-size="75%" font-style="italic"><rect width="121" height="20" x="612" y="1912" fill="green" fill-opacity=".3"/><text x="738" y="1927" text-anchor="start">-40.42%</text></g><text x="100" y="1932" text-anchor="start">BenchmarkNextUntilNodes</text><g font-size="75%" font-style="italic"><rect width="140" height="20" x="612" y="1938" fill="green" fill-opacity=".3"/><text x="757" y="1953" text-anchor="start">-46.87%</text></g><text x="100" y="1958" text-anchor="start">BenchmarkPrevUntil</text><g font-size="75%" font-style="italic"><rect width="99" height="20" x="612" y="1964" fill="green" fill-opacity=".3"/><text x="716" y="1979" text-anchor="start">-33.14%</text></g><text x="100" y="1984" text-anchor="start">BenchmarkPrevUntilSelection</text><g font-size="75%" font-style="italic"><rect width="123" height="20" x="612" y="1990" fill="green" fill-opacity=".3"/><text x="740" y="2005" text-anchor="start">-41.19%</text></g><text x="100" y="2010" text-anchor="start">BenchmarkPrevUntilNodes</text><g font-size="75%" font-style="italic"><rect width="167" height="20" x="612" y="2016" fill="green" fill-opacity=".3"/><text x="784" y="2031" text-anchor="start">-55.92%</text></g><text x="100" y="2036" text-anchor="start">BenchmarkNextFilteredUntil</text><g font-size="75%" font-style="italic"><rect width="97" height="20" x="612" y="2042" fill="green" fill-opacity=".3"/><text x="714" y="2057" text-anchor="start">-32.49%</text></g><text x="100" y="2062" text-anchor="start">BenchmarkNextFilteredUntilSelection</text><g font-size="75%" font-style="italic"><rect width="99" height="20" x="612" y="2068" fill="green" fill-opacity=".3"/><text x="716" y="2083" text-anchor="start">-33.00%</text></g><text x="100" y="2088" text-anchor="start">BenchmarkNextFilteredUntilNodes</text><g font-size="75%" font-style="italic"><rect width="175" height="20" x="612" y="2094" fill="green" fill-opacity=".3"/><text x="792" y="2109" text-anchor="start">-58.54%</text></g><text x="100" y="2114" text-anchor="start">BenchmarkPrevFilteredUntil</text><g font-size="75%" font-style="italic"><rect width="101" height="20" x="612" y="2120" fill="green" fill-opacity=".3"/><text x="718" y="2135" text-anchor="start">-33.80%</text></g><text x="100" y="2140" text-anchor="start">BenchmarkPrevFilteredUntilSelection</text><g font-size="75%" font-style="italic"><rect width="100" height="20" x="612" y="2146" fill="green" fill-opacity=".3"/><text x="717" y="2161" text-anchor="start">-33.44%</text></g><text x="100" y="2166" text-anchor="start">BenchmarkPrevFilteredUntilNodes</text><g font-size="75%" font-style="italic"><rect width="74" height="20" x="612" y="2172" fill="green" fill-opacity=".3"/><text x="691" y="2187" text-anchor="start">-24.82%</text></g><text x="100" y="2192" text-anchor="start">BenchmarkClosest</text><g font-size="75%" font-style="italic"><rect width="103" height="20" x="612" y="2198" fill="green" fill-opacity=".3"/><text x="720" y="2213" text-anchor="start">-34.45%</text></g><text x="100" y="2218" text-anchor="start">BenchmarkClosestSelection</text><g font-size="75%" font-style="italic"><rect width="105" height="20" x="612" y="2224" fill="green" fill-opacity=".3"/><text x="722" y="2239" text-anchor="start">-35.30%</text></g><text x="100" y="2244" text-anchor="start">BenchmarkClosestNodes</text></g></svg>